<svg id="レイヤー_1" data-name="レイヤー 1" xmlns="http://www.w3.org/2000/svg" viewBox="0 0 96 96"><defs><style>.cls-1{fill:#ff6900;}</style></defs><path class="cls-1" d="M88.81,2.87H72.15A3.43,3.43,0,0,0,68.73,6.3V21H10.18a5.49,5.49,0,0,0-5.49,5.49V40.2a5.49,5.49,0,0,0,3,4.89L35.82,59.51a12,12,0,0,0,5.52,1.33H68.73V74.05H27.44a9.54,9.54,0,1,0,9.13,6.84H59.41a9.52,9.52,0,1,0,16.16-3.71V9.72H88.81a3.43,3.43,0,0,0,0-6.85ZM30.12,83.56a2.68,2.68,0,1,1-2.68-2.67A2.68,2.68,0,0,1,30.12,83.56Zm38.42,2.68a2.68,2.68,0,1,1,2.67-2.68A2.68,2.68,0,0,1,68.54,86.24Z"/></svg>