<svg id="レイヤー_1" data-name="レイヤー 1" xmlns="http://www.w3.org/2000/svg" viewBox="0 0 148 112"><defs><style>.cls-1{fill:#fff;}</style></defs><path class="cls-1" d="M96.55,47a6.91,6.91,0,0,0-2.71-1.68V39.93a5.31,5.31,0,0,0-5.32-5.32h-.87V30.14h2.88v-23H70.39v7.29H67a13.55,13.55,0,0,0-3.16.4,18.43,18.43,0,0,0-4.73,1.93A29.79,29.79,0,0,0,54,20.41a25.18,25.18,0,0,0-2.07,2l-.65.74L56.59,28l.68-.73a25,25,0,0,1,3.44-3A17.42,17.42,0,0,1,64,22.35a9.91,9.91,0,0,1,1.61-.55A5.93,5.93,0,0,1,67,21.61h3.4v8.53h2.88v4.47h-.86a5.34,5.34,0,0,0-5.33,5.32v5.39a6.95,6.95,0,0,0-4.74,6.6V97.33a6.93,6.93,0,0,0,6.94,7H91.64a6.95,6.95,0,0,0,7-7V51.92A7,7,0,0,0,96.55,47ZM81.9,30.14v4.4H79v-4.4Zm2.88-17.26V24.39H76.14V12.88ZM72.84,45v-4.6l15.25,0V45Zm20,7V97.33a1.1,1.1,0,0,1-.1.47,1.15,1.15,0,0,1-.43.52,1.21,1.21,0,0,1-.68.21H69.3a1.28,1.28,0,0,1-.48-.09,1.26,1.26,0,0,1-.53-.44,1.2,1.2,0,0,1-.2-.67V51.92a1.23,1.23,0,0,1,.09-.47,1.26,1.26,0,0,1,.44-.53,1.13,1.13,0,0,1,.67-.2H91.63a1.23,1.23,0,0,1,.47.09,1.19,1.19,0,0,1,.53.44A1.13,1.13,0,0,1,92.84,51.92Z"/></svg>