<svg id="レイヤー_1" data-name="レイヤー 1" xmlns="http://www.w3.org/2000/svg" viewBox="0 0 148 112"><defs><style>.cls-1{fill:#0071bb;}</style></defs><path class="cls-1" d="M129,63.05l-1.91-5.62c-5.42-16-7.33-21.55-8-23.61l-.18-.57c-3-9.24-10.68-20.7-30.63-22.89l-6.52-.71-.19,6.56a7.53,7.53,0,0,1-15,0l-.2-6.55-6.52.72C39.79,12.59,32.08,24.06,29.12,33.3l-.16.54c-.63,1.81-2.2,6.46-6.39,18.83L19,63.12,42.32,71.5v30.85l63.4,0,0-30.84ZM98.64,95.24l-49.24,0V49L43.47,64.39,28,58.81l7.91-23.36c3.27-10.24,11.2-16.26,23.58-17.91a14.59,14.59,0,0,0,29.05,0c12.38,1.63,20.31,7.64,23.61,17.91L120,58.76l-15.51,5.6L98.59,49Z"/></svg>