<svg id="レイヤー_1" data-name="レイヤー 1" xmlns="http://www.w3.org/2000/svg" viewBox="0 0 148 112"><defs><style>.cls-1{fill:#890083;}</style></defs><path class="cls-1" d="M63.65,45.64a3.44,3.44,0,0,0-2.81,3.84,2.73,2.73,0,0,0,1.07,1.81l10.82,8.35.33.19a2.93,2.93,0,0,0,1.47.38A3.48,3.48,0,0,0,77.1,59L90.49,43.21a3.1,3.1,0,0,0,.8-2.2,2.52,2.52,0,0,0-.84-1.76,2.49,2.49,0,0,0-1.84-.63,3.11,3.11,0,0,0-2.09,1L74.64,52.35l-8.93-6.22A2.75,2.75,0,0,0,63.65,45.64Z"/><path class="cls-1" d="M49.91,57.32a18.67,18.67,0,0,1,0-3.23l.1-1h-8.6l-.06.82c0,.58-.06,1.18-.06,1.77s0,1.2.06,1.78l.06.82H50Z"/><path class="cls-1" d="M61.46,34.53c.62-.39,1.25-.76,1.87-1.08l1.11-.54-4.28-7.43-.74.38a27.26,27.26,0,0,0-2.56,1.47l-.7.45,4.28,7.44Z"/><path class="cls-1" d="M54.4,41.17,47,36.92l-.45.7a26.94,26.94,0,0,0-1.47,2.56l-.38.74,7.37,4.25Z"/><path class="cls-1" d="M97.21,67.3c-.34.64-.7,1.26-1.09,1.86l-.71,1,7.44,4.29.46-.7c.54-.84,1-1.67,1.47-2.54l.39-.75L97.76,66.2Z"/><path class="cls-1" d="M52.68,67.3l-.57-1.09-7.38,4.26.36.74a24,24,0,0,0,1.48,2.57l.45.7,7.44-4.29-.69-1A21.34,21.34,0,0,1,52.68,67.3Z"/><path class="cls-1" d="M61.47,76.88l-1-.71-4.28,7.44.7.46c.87.56,1.73,1.06,2.55,1.48l.75.38,4.28-7.43L63.34,78A20.3,20.3,0,0,1,61.47,76.88Z"/><path class="cls-1" d="M90.47,25.86l-.74-.38-4.26,7.36,4,2.32,4.25-7.37L93,27.33A25.53,25.53,0,0,0,90.47,25.86Z"/><path class="cls-1" d="M72.35,89.22l.8.07c.59,0,1.19.06,1.79.06s1.2,0,1.79-.06l.8-.07V80.67H72.35Z"/><path class="cls-1" d="M77.53,22.19l-.8-.07a21.28,21.28,0,0,0-3.57,0l-.81.07v8.56h5.18Z"/><path class="cls-1" d="M85.47,78.57l4.26,7.37.75-.39c.89-.47,1.72-1,2.53-1.48l.71-.46-4.25-7.38Z"/><path class="cls-1" d="M97.79,45.17l7.38-4.25-.38-.74a28.8,28.8,0,0,0-1.48-2.56l-.46-.7-7.38,4.25Z"/><path class="cls-1" d="M99.9,57.42l.07.88h8.5l.07-.82c0-.58,0-1.18,0-1.78s0-1.19-.06-1.77l-.06-.82H99.9Z"/><path class="cls-1" d="M74.94,12.06a43.65,43.65,0,1,0,43.65,43.65A43.7,43.7,0,0,0,74.94,12.06Zm36.37,43.65A36.38,36.38,0,1,1,100.65,30,36.19,36.19,0,0,1,111.31,55.71Z"/></svg>