<svg id="レイヤー_1" data-name="レイヤー 1" xmlns="http://www.w3.org/2000/svg" viewBox="0 0 156 98"><defs><style>.cls-1{fill:#fff;}</style></defs><path class="cls-1" d="M142.64,10.73a1.93,1.93,0,0,1-1.94,1.93c-10,0-18.16,2.45-25.62,7.7h0l.15.07a36.41,36.41,0,0,0,13.65,2.92c9.18,0,17-4.49,22.69-13a2.7,2.7,0,0,0-.8-3.77,24.77,24.77,0,0,0-13.47-4c-10.76,0-19.57,7.16-23.31,13.89,7.77-5.14,16.52-7.65,26.73-7.65A1.94,1.94,0,0,1,142.64,10.73Z"/><path class="cls-1" d="M147,61.14c-.66-11.4-3.13-18.83-14.28-25.44-4.56-2.7-11.39-5.47-27.43-5.47S82.45,33,77.89,35.7c-11.16,6.61-13.63,14-14.28,25.44-1.13,19.45,15.22,28,22.31,30.72,4.07,1.59,10.89,2.53,18.23,2.53h2.33c7.35,0,14.16-.94,18.24-2.53C131.8,89.1,148.15,80.59,147,61.14Zm-53-11a3.37,3.37,0,0,1-1.8,4.23,2.25,2.25,0,0,0-.45.57,3.4,3.4,0,0,1-3.15,2.12,3.48,3.48,0,0,1-1.26-.24,3.38,3.38,0,0,1-1.88-4.4,8,8,0,0,1,4.21-4.33A3.38,3.38,0,0,1,94,50.16ZM80.63,41.35a15.28,15.28,0,0,1,3.72-2.25,3.39,3.39,0,0,1,2.26,6.39,17.66,17.66,0,0,0-1.91,1.29,3.39,3.39,0,0,1-4.07-5.43ZM71.41,57.58v0a9.53,9.53,0,0,1,1.39-4.76,3.39,3.39,0,0,1,5.59,3.85,9.89,9.89,0,0,0-.23,1.56v0a3.39,3.39,0,0,1-3.37,3.06h-.33A3.39,3.39,0,0,1,71.41,57.58Zm7.82,19a3.41,3.41,0,0,1-4.7-1,11,11,0,0,1-1.32-4.83A3.39,3.39,0,1,1,80,70.37,7.82,7.82,0,0,0,80.26,72,3.4,3.4,0,0,1,79.23,76.59Zm3-9.67A10.08,10.08,0,0,1,82,61.76a3.39,3.39,0,0,1,6.55,1.77,4.32,4.32,0,0,0,.21,1.4,3.39,3.39,0,0,1-2.24,4.24,3.52,3.52,0,0,1-1,.15A3.4,3.4,0,0,1,82.26,66.92ZM93.63,80.65a3.39,3.39,0,0,1-4.78.36,21.71,21.71,0,0,1-2.7-2.93A3.39,3.39,0,0,1,91.57,74a14.3,14.3,0,0,0,1.71,1.87A3.38,3.38,0,0,1,93.63,80.65Z"/><path class="cls-1" d="M56.53,60.73c.62-10.8,2.51-22.1,17.74-31.13A38.38,38.38,0,0,1,83,25.79c-1.82-5.16-5.24-9.33-11.78-13.21C66.81,10,60.27,7.35,44.91,7.35S23,10,18.65,12.58C8,18.91,5.61,26,5,36.94,3.91,55.56,19.56,63.71,26.34,66.35c3.9,1.52,10.43,2.42,17.46,2.42H46A71,71,0,0,0,56.79,68,38,38,0,0,1,56.53,60.73ZM34.12,26.42a3.24,3.24,0,0,1-1.73,4.06A2.08,2.08,0,0,0,32,31a3.24,3.24,0,0,1-6-2.41,7.73,7.73,0,0,1,4-4.15A3.25,3.25,0,0,1,34.12,26.42ZM21.28,18a14.64,14.64,0,0,1,3.56-2.15A3.25,3.25,0,0,1,27,22a16.35,16.35,0,0,0-1.83,1.23A3.25,3.25,0,0,1,21.28,18ZM12.45,33.52v-.05a9,9,0,0,1,1.33-4.54,3.24,3.24,0,0,1,5.34,3.68,8.3,8.3,0,0,0-.21,1.49v0a3.23,3.23,0,0,1-3.22,2.93h-.32A3.25,3.25,0,0,1,12.45,33.52Zm7.49,18.2a3.22,3.22,0,0,1-1.79.55,3.26,3.26,0,0,1-2.71-1.45,10.58,10.58,0,0,1-1.27-4.62,3.25,3.25,0,1,1,6.48-.43,7.62,7.62,0,0,0,.28,1.59A3.24,3.24,0,0,1,19.94,51.72Zm2.9-9.25a9.73,9.73,0,0,1-.27-4.94,3.25,3.25,0,0,1,6.27,1.69,4.55,4.55,0,0,0,.2,1.35,3.23,3.23,0,0,1-2.15,4,3.09,3.09,0,0,1-.95.15A3.25,3.25,0,0,1,22.84,42.47ZM33.73,55.62a3.27,3.27,0,0,1-4.58.34,20.72,20.72,0,0,1-2.59-2.81,3.25,3.25,0,0,1,5.19-3.9A13.81,13.81,0,0,0,33.39,51,3.25,3.25,0,0,1,33.73,55.62ZM46.07,16.45c-2.91,0-5.27-1.64-5.27-3.65s2.36-3.65,5.27-3.65,5.26,1.63,5.26,3.65S49,16.45,46.07,16.45Z"/><path class="cls-1" d="M104.47,23.6h4.08c.56,0,1-.72,1-1.21v-6a3.09,3.09,0,1,0-6.18,0v6C103.42,22.88,103.91,23.6,104.47,23.6Z"/></svg>