<svg id="レイヤー_1" data-name="レイヤー 1" xmlns="http://www.w3.org/2000/svg" viewBox="0 0 128 80"><defs><style>.cls-1{fill:#fff;}</style></defs><path class="cls-1" d="M74,66.21c-1.8.72-3.64,1.36-5.5,1.92,2.26,1.06,8.56,4,9.22,4.11.95.19,2.75-.66,4.69-1.95l-8-3.83A2,2,0,0,1,74,66.21Z"/><path class="cls-1" d="M91,61.05a23.41,23.41,0,0,0,1.8-4.74c-1.69.86-3.63,1.95-5.79,3.19Z"/><path class="cls-1" d="M78.88,64,86,67.45a24.85,24.85,0,0,0,2.76-2.82l-6.38-2.47C81.25,62.82,80.08,63.44,78.88,64Z"/><path class="cls-1" d="M57.6,73.57c.89-1.43,1.55-2.6,2-3.35q-3.15.52-6.39.79Z"/><path class="cls-1" d="M38,70.85c3.25,2.33,9.64,6.66,14.63,8.3,1,.3,1.11,0,1.69-.78.34-.45.66-.9,1-1.33l-10-5.78C42.9,71.22,40.47,71.09,38,70.85Z"/><path class="cls-1" d="M91.15,27.87a23.22,23.22,0,0,0-1.92-4.75,14.29,14.29,0,0,0-3-3.43l-2,3.94C86.67,25,89,26.43,91.15,27.87Z"/><path class="cls-1" d="M47.33,10.57l8-8C53.51,2,51.73,1.45,50,1.05a5.27,5.27,0,0,0-2.41.6,114.8,114.8,0,0,0-10,8.81c1.33-.13,2.7-.2,4.11-.2A51.8,51.8,0,0,1,47.33,10.57Z"/><path class="cls-1" d="M59.24,13l6-6.32c-1.87-.88-3.76-1.71-5.65-2.46l-7.17,7.17C54.76,11.78,57,12.33,59.24,13Z"/><path class="cls-1" d="M70,16.68l4.19-5.38c-1.61-.93-3.29-1.86-5-2.75l-5.5,5.77C65.91,15.08,68,15.88,70,16.68Z"/><path class="cls-1" d="M80.61,21.64,82.93,17c-1.54-1.15-3.28-2.34-5.19-3.55l-3.82,4.91C76.17,19.39,78.42,20.49,80.61,21.64Z"/><path class="cls-1" d="M42.87,47c0,.23-.11.46-.17.7a30.31,30.31,0,0,0,7,2.54,3.8,3.8,0,0,0,3-.8,7.13,7.13,0,0,0,.82-.75Z"/><path class="cls-1" d="M43.43,43.33c0,.12,0,.24,0,.36l12,1.93a21.55,21.55,0,0,0,1-2.61l-13,.21A.41.41,0,0,1,43.43,43.33Z"/><path class="cls-1" d="M123.34,58.36l-12.55-5.12a2.09,2.09,0,0,1-1.14-2.71,2.06,2.06,0,0,1,2.7-1.13l8,3.27c-1.25-2.35-2.38-4.43-3.16-5.85h-5.56a2.08,2.08,0,1,1,0-4.15h5.53c.85-1.73,1.9-3.73,3-5.72l-7.29,3a2,2,0,0,1-.78.16,2.08,2.08,0,0,1-.78-4l12.07-4.93c.85-1.49,1.6-2.77,2.12-3.65s0-1.67-.69-1.67a1.12,1.12,0,0,0-.44.09c-5.91,2.28-11.65,6.33-17.39,10.39-2.27,1.61-3.87,2.62-5.65,2.62s-3.77-1-6.8-3.47c-10.85-8.77-34.1-21-52.76-21a30.55,30.55,0,0,0-12.43,2.36C11.68,24.57,2.25,39.29,2,45.88s14.61,17,27.87,19.57a88.07,88.07,0,0,0,16.78,1.68,67.75,67.75,0,0,0,34.26-8.86c8.78-5.07,13.95-8.2,17.93-8.2a6.63,6.63,0,0,1,3.79,1.16c5.21,3.47,13.73,9.15,21.26,12a.71.71,0,0,0,.28.06,1.17,1.17,0,0,0,.89-1.58C124.49,60.64,123.92,59.51,123.34,58.36ZM20.48,45.55h-.17a3.92,3.92,0,0,1,.17-7.84h.18a3.92,3.92,0,0,1-.18,7.84ZM60.6,39.94c-.37,3-2.09,9.31-5.93,12.21a7.11,7.11,0,0,1-4.37,1.53,7.4,7.4,0,0,1-1.14-.09A31.45,31.45,0,0,1,41.73,51c-1.22,3.58-2.87,6.89-4.22,8.36a2.07,2.07,0,1,1-3.06-2.79C35.9,55,39,47.87,39.29,43.07c.29-4.62-2.39-9.13-8.2-13.81A2.07,2.07,0,1,1,33.69,26C38,29.5,40.86,33,42.32,36.6c5-2.1,11.62-2.93,15.08-2.33C59.72,34.67,61,36.9,60.6,39.94Z"/><path class="cls-1" d="M57.24,39.62s0-.07,0-.1c.06-.47.11-1.84-.43-1.93-3-.52-9.15.36-13.52,2.26Z"/></svg>